<mxfile host="app.diagrams.net" modified="2023-11-22T16:05:53.186Z" agent="Mozilla/5.0 (X11; Linux x86_64) AppleWebKit/537.36 (KHTML, like Gecko) Chrome/119.0.0.0 Safari/537.36" etag="gr7ShjySBZfp5TbSB047" version="22.1.3" type="device">
  <diagram name="Page-1" id="MRzsRnbwaMJQk0XSHjTc">
    <mxGraphModel dx="905" dy="408" grid="1" gridSize="10" guides="1" tooltips="1" connect="1" arrows="1" fold="1" page="1" pageScale="1" pageWidth="850" pageHeight="1100" math="0" shadow="0">
      <root>
        <mxCell id="0" />
        <mxCell id="1" parent="0" />
        <mxCell id="oE--b2Kh5pRUx79Y7mFf-1" value="UI" style="rounded=1;whiteSpace=wrap;html=1;" parent="1" vertex="1">
          <mxGeometry x="40" y="40" width="120" height="60" as="geometry" />
        </mxCell>
        <mxCell id="oE--b2Kh5pRUx79Y7mFf-13" style="edgeStyle=orthogonalEdgeStyle;rounded=0;orthogonalLoop=1;jettySize=auto;html=1;entryX=0.5;entryY=0;entryDx=0;entryDy=0;" parent="1" source="oE--b2Kh5pRUx79Y7mFf-2" target="oE--b2Kh5pRUx79Y7mFf-12" edge="1">
          <mxGeometry relative="1" as="geometry" />
        </mxCell>
        <mxCell id="oE--b2Kh5pRUx79Y7mFf-2" value="Keycloack" style="rounded=1;whiteSpace=wrap;html=1;" parent="1" vertex="1">
          <mxGeometry x="40" y="170" width="120" height="60" as="geometry" />
        </mxCell>
        <mxCell id="oE--b2Kh5pRUx79Y7mFf-9" value="" style="edgeStyle=orthogonalEdgeStyle;rounded=0;orthogonalLoop=1;jettySize=auto;html=1;exitX=0;exitY=0.5;exitDx=0;exitDy=0;" parent="1" source="IqXUjUBHU6tVjQ7COqKv-1" target="oE--b2Kh5pRUx79Y7mFf-1" edge="1">
          <mxGeometry relative="1" as="geometry" />
        </mxCell>
        <mxCell id="IqXUjUBHU6tVjQ7COqKv-3" style="edgeStyle=orthogonalEdgeStyle;rounded=0;orthogonalLoop=1;jettySize=auto;html=1;entryX=1;entryY=0.5;entryDx=0;entryDy=0;" parent="1" source="oE--b2Kh5pRUx79Y7mFf-3" target="IqXUjUBHU6tVjQ7COqKv-1" edge="1">
          <mxGeometry relative="1" as="geometry" />
        </mxCell>
        <mxCell id="oE--b2Kh5pRUx79Y7mFf-3" value="Conducting Service" style="rounded=1;whiteSpace=wrap;html=1;" parent="1" vertex="1">
          <mxGeometry x="470" width="120" height="60" as="geometry" />
        </mxCell>
        <mxCell id="oE--b2Kh5pRUx79Y7mFf-4" value="kafka" style="shape=datastore;whiteSpace=wrap;html=1;" parent="1" vertex="1">
          <mxGeometry x="670" y="100" width="60" height="60" as="geometry" />
        </mxCell>
        <mxCell id="oE--b2Kh5pRUx79Y7mFf-6" value="" style="endArrow=classic;startArrow=classic;html=1;rounded=0;exitX=0.5;exitY=0;exitDx=0;exitDy=0;entryX=0.5;entryY=1;entryDx=0;entryDy=0;" parent="1" source="oE--b2Kh5pRUx79Y7mFf-2" target="oE--b2Kh5pRUx79Y7mFf-1" edge="1">
          <mxGeometry width="50" height="50" relative="1" as="geometry">
            <mxPoint x="100" y="170" as="sourcePoint" />
            <mxPoint x="150" y="120" as="targetPoint" />
          </mxGeometry>
        </mxCell>
        <mxCell id="oE--b2Kh5pRUx79Y7mFf-8" value="" style="endArrow=classic;startArrow=classic;html=1;rounded=0;exitX=0;exitY=0.5;exitDx=0;exitDy=0;entryX=1;entryY=0.5;entryDx=0;entryDy=0;" parent="1" source="IqXUjUBHU6tVjQ7COqKv-1" target="oE--b2Kh5pRUx79Y7mFf-1" edge="1">
          <mxGeometry width="50" height="50" relative="1" as="geometry">
            <mxPoint x="110" y="180" as="sourcePoint" />
            <mxPoint x="110" y="110" as="targetPoint" />
          </mxGeometry>
        </mxCell>
        <mxCell id="oE--b2Kh5pRUx79Y7mFf-17" style="edgeStyle=orthogonalEdgeStyle;rounded=0;orthogonalLoop=1;jettySize=auto;html=1;entryX=1;entryY=0.5;entryDx=0;entryDy=0;" parent="1" source="oE--b2Kh5pRUx79Y7mFf-11" target="oE--b2Kh5pRUx79Y7mFf-12" edge="1">
          <mxGeometry relative="1" as="geometry">
            <Array as="points">
              <mxPoint x="400" y="200" />
              <mxPoint x="400" y="310" />
            </Array>
          </mxGeometry>
        </mxCell>
        <mxCell id="oE--b2Kh5pRUx79Y7mFf-11" value="Judge Service" style="rounded=1;whiteSpace=wrap;html=1;" parent="1" vertex="1">
          <mxGeometry x="470" y="170" width="120" height="60" as="geometry" />
        </mxCell>
        <mxCell id="oE--b2Kh5pRUx79Y7mFf-12" value="postgres" style="shape=datastore;whiteSpace=wrap;html=1;" parent="1" vertex="1">
          <mxGeometry x="70" y="280" width="60" height="60" as="geometry" />
        </mxCell>
        <mxCell id="oE--b2Kh5pRUx79Y7mFf-15" value="" style="endArrow=classic;startArrow=classic;html=1;rounded=0;entryX=1;entryY=0.5;entryDx=0;entryDy=0;" parent="1" source="oE--b2Kh5pRUx79Y7mFf-4" target="oE--b2Kh5pRUx79Y7mFf-3" edge="1">
          <mxGeometry width="50" height="50" relative="1" as="geometry">
            <mxPoint x="520" y="130" as="sourcePoint" />
            <mxPoint x="430" y="130" as="targetPoint" />
          </mxGeometry>
        </mxCell>
        <mxCell id="oE--b2Kh5pRUx79Y7mFf-16" value="" style="endArrow=classic;startArrow=classic;html=1;rounded=0;exitX=-0.033;exitY=0.869;exitDx=0;exitDy=0;entryX=1;entryY=0.5;entryDx=0;entryDy=0;exitPerimeter=0;" parent="1" source="oE--b2Kh5pRUx79Y7mFf-4" target="oE--b2Kh5pRUx79Y7mFf-11" edge="1">
          <mxGeometry width="50" height="50" relative="1" as="geometry">
            <mxPoint x="450" y="90" as="sourcePoint" />
            <mxPoint x="360" y="90" as="targetPoint" />
          </mxGeometry>
        </mxCell>
        <mxCell id="oE--b2Kh5pRUx79Y7mFf-18" value="Get task&lt;br&gt;Submit solution&lt;br&gt;Create exams, tasks" style="text;html=1;strokeColor=none;fillColor=none;align=center;verticalAlign=middle;whiteSpace=wrap;rounded=0;" parent="1" vertex="1">
          <mxGeometry x="160" y="40" width="110" height="30" as="geometry" />
        </mxCell>
        <mxCell id="oE--b2Kh5pRUx79Y7mFf-19" value="Publish solutions" style="text;html=1;strokeColor=none;fillColor=none;align=center;verticalAlign=middle;whiteSpace=wrap;rounded=0;" parent="1" vertex="1">
          <mxGeometry x="620" y="40" width="110" height="30" as="geometry" />
        </mxCell>
        <mxCell id="oE--b2Kh5pRUx79Y7mFf-20" value="Get solutions" style="text;html=1;strokeColor=none;fillColor=none;align=center;verticalAlign=middle;whiteSpace=wrap;rounded=0;" parent="1" vertex="1">
          <mxGeometry x="610" y="170" width="110" height="30" as="geometry" />
        </mxCell>
        <mxCell id="oE--b2Kh5pRUx79Y7mFf-21" value="Save solution&lt;br&gt;Compile solution&lt;br&gt;Test solution&lt;br&gt;Save result" style="text;html=1;strokeColor=none;fillColor=none;align=center;verticalAlign=middle;whiteSpace=wrap;rounded=0;" parent="1" vertex="1">
          <mxGeometry x="475" y="250" width="110" height="30" as="geometry" />
        </mxCell>
        <mxCell id="oE--b2Kh5pRUx79Y7mFf-22" value="sign-up/sign-in" style="text;html=1;strokeColor=none;fillColor=none;align=center;verticalAlign=middle;whiteSpace=wrap;rounded=0;" parent="1" vertex="1">
          <mxGeometry x="90" y="120" width="110" height="30" as="geometry" />
        </mxCell>
        <mxCell id="oE--b2Kh5pRUx79Y7mFf-24" value="users&lt;br&gt;tasks and tests&lt;br&gt;solutions" style="text;html=1;strokeColor=none;fillColor=none;align=center;verticalAlign=middle;whiteSpace=wrap;rounded=0;" parent="1" vertex="1">
          <mxGeometry x="45" y="350" width="110" height="30" as="geometry" />
        </mxCell>
        <mxCell id="oE--b2Kh5pRUx79Y7mFf-25" value="" style="endArrow=classic;startArrow=classic;html=1;rounded=0;entryX=1.004;entryY=0.054;entryDx=0;entryDy=0;entryPerimeter=0;exitX=-0.03;exitY=0.533;exitDx=0;exitDy=0;exitPerimeter=0;" parent="1" source="k67q0wwZx6QNSHhKVM2D-1" target="oE--b2Kh5pRUx79Y7mFf-12" edge="1">
          <mxGeometry width="50" height="50" relative="1" as="geometry">
            <mxPoint x="380" y="170" as="sourcePoint" />
            <mxPoint x="170" y="120" as="targetPoint" />
          </mxGeometry>
        </mxCell>
        <mxCell id="oE--b2Kh5pRUx79Y7mFf-26" value="get results" style="text;html=1;strokeColor=none;fillColor=none;align=center;verticalAlign=middle;whiteSpace=wrap;rounded=0;rotation=-25;" parent="1" vertex="1">
          <mxGeometry x="260" y="160" width="110" height="30" as="geometry" />
        </mxCell>
        <mxCell id="IqXUjUBHU6tVjQ7COqKv-2" style="edgeStyle=orthogonalEdgeStyle;rounded=0;orthogonalLoop=1;jettySize=auto;html=1;entryX=0;entryY=0.5;entryDx=0;entryDy=0;" parent="1" source="IqXUjUBHU6tVjQ7COqKv-1" target="oE--b2Kh5pRUx79Y7mFf-3" edge="1">
          <mxGeometry relative="1" as="geometry" />
        </mxCell>
        <mxCell id="k67q0wwZx6QNSHhKVM2D-2" style="edgeStyle=orthogonalEdgeStyle;rounded=0;orthogonalLoop=1;jettySize=auto;html=1;entryX=0;entryY=0.5;entryDx=0;entryDy=0;" edge="1" parent="1" source="IqXUjUBHU6tVjQ7COqKv-1" target="k67q0wwZx6QNSHhKVM2D-1">
          <mxGeometry relative="1" as="geometry" />
        </mxCell>
        <mxCell id="IqXUjUBHU6tVjQ7COqKv-1" value="Api Gateway" style="rounded=1;whiteSpace=wrap;html=1;" parent="1" vertex="1">
          <mxGeometry x="270" y="40" width="120" height="60" as="geometry" />
        </mxCell>
        <mxCell id="k67q0wwZx6QNSHhKVM2D-1" value="Manage Exam Service" style="rounded=1;whiteSpace=wrap;html=1;" vertex="1" parent="1">
          <mxGeometry x="470" y="80" width="120" height="60" as="geometry" />
        </mxCell>
        <mxCell id="k67q0wwZx6QNSHhKVM2D-3" value="Create exams, tasks" style="text;html=1;strokeColor=none;fillColor=none;align=center;verticalAlign=middle;whiteSpace=wrap;rounded=0;" vertex="1" parent="1">
          <mxGeometry x="379" y="108" width="60" as="geometry" />
        </mxCell>
        <mxCell id="k67q0wwZx6QNSHhKVM2D-5" style="edgeStyle=orthogonalEdgeStyle;rounded=0;orthogonalLoop=1;jettySize=auto;html=1;exitX=0;exitY=0;exitDx=0;exitDy=0;" edge="1" parent="1" source="k67q0wwZx6QNSHhKVM2D-3" target="k67q0wwZx6QNSHhKVM2D-3">
          <mxGeometry relative="1" as="geometry" />
        </mxCell>
        <mxCell id="k67q0wwZx6QNSHhKVM2D-6" value="Get tasks" style="text;html=1;strokeColor=none;fillColor=none;align=center;verticalAlign=middle;whiteSpace=wrap;rounded=0;" vertex="1" parent="1">
          <mxGeometry x="388" y="20" width="60" as="geometry" />
        </mxCell>
      </root>
    </mxGraphModel>
  </diagram>
</mxfile>
